<svg width="33" height="33" viewBox="0 0 33 33" fill="none" xmlns="http://www.w3.org/2000/svg">
<path d="M28.4871 21.342C27.6326 23.3626 26.2962 25.1432 24.5946 26.5281C22.893 27.9129 20.8781 28.8599 18.726 29.2861C16.5739 29.7124 14.3502 29.6049 12.2492 28.9732C10.1482 28.3415 8.23394 27.2047 6.67378 25.6623C5.11363 24.1198 3.95507 22.2187 3.2994 20.125C2.64372 18.0314 2.5109 15.809 2.91253 13.6522C3.31417 11.4954 4.23804 9.46978 5.60337 7.7525C6.9687 6.03521 8.73392 4.67853 10.7447 3.80105M29.5481 16.1173C29.5481 14.3535 29.2007 12.607 28.5257 10.9775C27.8508 9.34794 26.8615 7.86732 25.6143 6.62013C24.3671 5.37295 22.8865 4.38363 21.2569 3.70865C19.6274 3.03368 17.8809 2.68628 16.1171 2.68628V16.1173H29.5481Z" stroke="#33E892" stroke-width="4" stroke-linecap="round" stroke-linejoin="round"/>
</svg>
