<svg width="32" height="38" viewBox="0 0 32 38" fill="none" xmlns="http://www.w3.org/2000/svg">
<path d="M26.2264 20.0113C26.1825 15.2574 30.2187 12.9446 30.4033 12.8369C28.1174 9.5875 24.5744 9.14352 23.3293 9.10812C20.3536 8.8028 17.4672 10.8442 15.9513 10.8442C14.4052 10.8442 12.0709 9.13762 9.55512 9.18777C6.31768 9.23645 3.28902 11.064 1.62794 13.9019C-1.80011 19.6883 0.756555 28.1917 4.04089 32.8689C5.68381 35.1596 7.60358 37.7172 10.1164 37.6272C12.5747 37.5284 13.493 36.0991 16.4596 36.0991C19.399 36.0991 20.2613 37.6272 22.8241 37.5697C25.4624 37.5284 27.1235 35.2687 28.7089 32.9574C30.6075 30.3319 31.37 27.7462 31.4002 27.6135C31.3382 27.5928 26.2763 25.7092 26.2264 20.0113Z" fill="white"/>
<path d="M21.3854 6.03127C22.7076 4.4191 23.6122 2.22577 23.3611 0C21.4474 0.0826 19.0541 1.29063 17.6759 2.8674C16.4566 4.25685 15.3674 6.53425 15.6488 8.67595C17.7985 8.8323 20.0057 7.61837 21.3854 6.03127Z" fill="white"/>
</svg>
