<svg width="27" height="30" viewBox="0 0 27 30" fill="none" xmlns="http://www.w3.org/2000/svg">
<path d="M2.67186 17.3368C2.41955 17.3376 2.17217 17.2669 1.95847 17.1328C1.74477 16.9986 1.57351 16.8066 1.4646 16.579C1.35569 16.3514 1.31359 16.0976 1.3432 15.847C1.37281 15.5964 1.4729 15.3594 1.63186 15.1635L14.8319 1.56345C14.9309 1.44916 15.0658 1.37193 15.2145 1.34443C15.3632 1.31693 15.5168 1.3408 15.6502 1.41212C15.7835 1.48345 15.8886 1.59798 15.9483 1.73693C16.008 1.87588 16.0186 2.03098 15.9785 2.17679L13.4185 10.2035C13.343 10.4055 13.3177 10.6228 13.3447 10.8368C13.3716 11.0508 13.4501 11.255 13.5733 11.432C13.6966 11.609 13.8609 11.7535 14.0522 11.853C14.2436 11.9525 14.4562 12.0042 14.6719 12.0035H24.0052C24.2575 12.0026 24.5049 12.0733 24.7186 12.2075C24.9323 12.3416 25.1036 12.5336 25.2125 12.7612C25.3214 12.9888 25.3635 13.2427 25.3339 13.4932C25.3043 13.7438 25.2042 13.9808 25.0452 14.1768L11.8452 27.7768C11.7462 27.8911 11.6113 27.9683 11.4626 27.9958C11.3139 28.0233 11.1602 27.9994 11.0269 27.9281C10.8936 27.8568 10.7884 27.7423 10.7288 27.6033C10.6691 27.4644 10.6584 27.3093 10.6985 27.1635L13.2585 19.1368C13.334 18.9348 13.3594 18.7174 13.3324 18.5034C13.3055 18.2895 13.227 18.0852 13.1037 17.9082C12.9805 17.7312 12.8162 17.5868 12.6248 17.4872C12.4335 17.3877 12.2209 17.3361 12.0052 17.3368H2.67186Z" stroke="#3DDC84" stroke-width="2.66667" stroke-linecap="round" stroke-linejoin="round"/>
</svg>
