<svg width="96" height="96" viewBox="0 0 96 96" fill="none" xmlns="http://www.w3.org/2000/svg">
<path d="M48.0009 40C45.8792 40 43.8444 40.8429 42.3441 42.3431C40.8438 43.8434 40.0009 45.8783 40.0009 48C40.0009 52.08 39.6009 58.04 38.9609 64" stroke="#3DDC84" stroke-width="8" stroke-linecap="round" stroke-linejoin="round"/>
<path d="M56 52.48C56 62 56 78 52 88" stroke="#3DDC84" stroke-width="8" stroke-linecap="round" stroke-linejoin="round"/>
<path d="M69.1602 84.08C69.6402 81.68 70.8802 74.88 71.1602 72" stroke="#3DDC84" stroke-width="8" stroke-linecap="round" stroke-linejoin="round"/>
<path d="M8 48C8 39.6047 10.6415 31.4222 15.5503 24.6116C20.4591 17.801 27.3864 12.7075 35.3509 10.0527C43.3154 7.39784 51.9133 7.31625 59.9267 9.81946C67.9401 12.3227 74.9628 17.2838 80 24" stroke="#3DDC84" stroke-width="8" stroke-linecap="round" stroke-linejoin="round"/>
<path d="M8 64H8.04" stroke="#3DDC84" stroke-width="8" stroke-linecap="round" stroke-linejoin="round"/>
<path d="M87.1992 64C87.9992 56 87.7232 42.584 87.1992 40" stroke="#3DDC84" stroke-width="8" stroke-linecap="round" stroke-linejoin="round"/>
<path d="M20 78C22 72 24 60 24 48C23.996 45.2755 24.4559 42.5701 25.36 40" stroke="#3DDC84" stroke-width="8" stroke-linecap="round" stroke-linejoin="round"/>
<path d="M34.5996 88C35.4396 85.36 36.3996 82.72 36.8796 80" stroke="#3DDC84" stroke-width="8" stroke-linecap="round" stroke-linejoin="round"/>
<path d="M36 27.2C39.6496 25.0929 43.7897 23.9839 48.0038 23.9846C52.218 23.9853 56.3578 25.0956 60.0067 27.2039C63.6556 29.3121 66.685 32.344 68.7904 35.9946C70.8957 39.6452 72.0027 43.7858 72 48V56" stroke="#3DDC84" stroke-width="8" stroke-linecap="round" stroke-linejoin="round"/>
</svg>
