<svg width="20" height="20" viewBox="0 0 20 20" fill="none" xmlns="http://www.w3.org/2000/svg">
<path d="M12.5005 18.3332V14.9998C12.6164 13.9559 12.3171 12.9083 11.6671 12.0832C14.1671 12.0832 16.6671 10.4165 16.6671 7.49984C16.7338 6.45817 16.4421 5.43317 15.8338 4.58317C16.0671 3.62484 16.0671 2.62484 15.8338 1.6665C15.8338 1.6665 15.0005 1.6665 13.3338 2.9165C11.1338 2.49984 8.86715 2.49984 6.66715 2.9165C5.00048 1.6665 4.16715 1.6665 4.16715 1.6665C3.91715 2.62484 3.91715 3.62484 4.16715 4.58317C3.56037 5.42974 3.26587 6.46049 3.33381 7.49984C3.33381 10.4165 5.83381 12.0832 8.33381 12.0832C8.00881 12.4915 7.76714 12.9582 7.62548 13.4582C7.48381 13.9582 7.44215 14.4832 7.50048 14.9998V18.3332" stroke="#94A3B8" stroke-width="1.66667" stroke-linecap="round" stroke-linejoin="round"/>
<path d="M7.49935 15.0002C3.74102 16.6668 3.33268 13.3335 1.66602 13.3335" stroke="#94A3B8" stroke-width="1.66667" stroke-linecap="round" stroke-linejoin="round"/>
</svg>
