<svg width="20" height="20" viewBox="0 0 20 20" fill="none" xmlns="http://www.w3.org/2000/svg">
<path d="M13.334 6.6665C14.6601 6.6665 15.9318 7.19329 16.8695 8.13097C17.8072 9.06865 18.334 10.3404 18.334 11.6665V17.4998H15.0007V11.6665C15.0007 11.2245 14.8251 10.8006 14.5125 10.488C14.1999 10.1754 13.776 9.99984 13.334 9.99984C12.892 9.99984 12.468 10.1754 12.1555 10.488C11.8429 10.8006 11.6673 11.2245 11.6673 11.6665V17.4998H8.33398V11.6665C8.33398 10.3404 8.86077 9.06865 9.79845 8.13097C10.7361 7.19329 12.0079 6.6665 13.334 6.6665Z" stroke="#94A3B8" stroke-width="1.66667" stroke-linecap="round" stroke-linejoin="round"/>
<path d="M4.99935 7.5H1.66602V17.5H4.99935V7.5Z" stroke="#94A3B8" stroke-width="1.66667" stroke-linecap="round" stroke-linejoin="round"/>
<path d="M3.33268 4.99984C4.25316 4.99984 4.99935 4.25365 4.99935 3.33317C4.99935 2.4127 4.25316 1.6665 3.33268 1.6665C2.41221 1.6665 1.66602 2.4127 1.66602 3.33317C1.66602 4.25365 2.41221 4.99984 3.33268 4.99984Z" stroke="#94A3B8" stroke-width="1.66667" stroke-linecap="round" stroke-linejoin="round"/>
</svg>
