<svg width="15" height="19" viewBox="0 0 15 19" fill="none" xmlns="http://www.w3.org/2000/svg">
<path fill-rule="evenodd" clip-rule="evenodd" d="M9.03047 0.00243868L3.91172 0.0118137L3.88594 0.229783C3.87422 0.34697 3.82266 0.574314 3.77344 0.729001C3.72422 0.886033 3.62109 1.1415 3.54375 1.29619C3.46406 1.44853 3.33281 1.66416 3.25078 1.76963C3.16875 1.8751 3.01641 2.04385 2.91328 2.13994C2.81016 2.23838 2.62266 2.38603 2.50078 2.47041C2.37656 2.55478 2.16328 2.67431 2.025 2.7376C1.88906 2.80088 1.68516 2.87588 1.57734 2.90869C1.46719 2.93916 1.26328 2.98603 1.12031 3.01416C0.977344 3.04228 0.773438 3.09619 0.667969 3.13603C0.5625 3.17588 0.417187 3.25791 0.344531 3.3165C0.274219 3.3751 0.166406 3.52041 0.107813 3.63994L0 3.85556V6.06806V8.28056L0.128906 8.09306C0.199219 7.98994 0.330469 7.81885 0.417188 7.71572C0.503906 7.6126 0.703125 7.42744 0.860156 7.30322C1.01484 7.17666 1.26094 7.00556 1.40625 6.92353C1.55156 6.83916 1.73203 6.74306 1.81172 6.71025C1.88906 6.67744 2.17266 6.57197 2.44453 6.47353C2.71406 6.37744 3.04687 6.2415 3.18281 6.17353C3.31641 6.10556 3.56484 5.95556 3.73359 5.84072C3.90234 5.72588 4.1625 5.51025 4.31484 5.36025C4.46484 5.2126 4.67813 4.96416 4.78594 4.80947C4.89375 4.65478 5.03203 4.43447 5.08828 4.31963C5.14688 4.20244 5.24297 3.97275 5.29922 3.80869C5.35781 3.64463 5.43281 3.3915 5.46328 3.24619C5.49609 3.10088 5.53359 2.85478 5.54766 2.70244L5.57344 2.42119L10.2211 2.41181L14.8711 2.40244V1.51416C14.8711 1.00322 14.8547 0.569626 14.8336 0.494626C14.8125 0.42197 14.7469 0.304783 14.6883 0.236814C14.6273 0.168845 14.5383 0.093845 14.4891 0.0680638C14.4375 0.0422825 14.3414 0.0165013 14.2734 0.00712629C14.2055 9.5041e-05 11.8477 -0.00224882 9.03047 0.00243868ZM6.63281 3.62119C6.61875 3.63291 6.60938 3.67744 6.60938 3.71728C6.60938 3.75713 6.54609 3.9751 6.47109 4.2001C6.39375 4.4251 6.27891 4.71806 6.21094 4.85166C6.14297 4.9876 5.99297 5.23838 5.87812 5.40947C5.76094 5.58291 5.54297 5.85713 5.39297 6.01885C5.24063 6.18291 4.98516 6.42197 4.82344 6.55088C4.66172 6.68213 4.36875 6.88369 4.17188 7.00088C3.975 7.11572 3.55312 7.32431 3.23438 7.46494C2.91563 7.60322 2.53594 7.78134 2.39062 7.86103C2.24531 7.94072 2.00859 8.08369 1.86328 8.17978C1.72031 8.27822 1.46016 8.4915 1.28906 8.65791C1.10156 8.83838 0.888281 9.09385 0.752344 9.29306C0.630469 9.47822 0.475781 9.74775 0.410156 9.89541C0.342187 10.0407 0.248437 10.2845 0.196875 10.4392C0.147656 10.5915 0.0820313 10.8563 0.0539063 11.0298C0.00703132 11.2946 0 11.8759 0 14.836V18.3329L1.57266 18.3188C2.93672 18.3071 3.17344 18.2978 3.35859 18.2438C3.47344 18.211 3.69609 18.122 3.85078 18.047C4.00312 17.9696 4.23984 17.8267 4.37109 17.7259C4.50469 17.6274 4.68984 17.447 4.78594 17.3298C4.87969 17.2126 5.02734 16.9735 5.11172 16.8001C5.19844 16.6243 5.29453 16.3806 5.32969 16.254C5.38828 16.0454 5.39531 15.8017 5.40469 13.4696L5.41641 10.9126L7.90313 10.9009C10.3148 10.8892 10.3992 10.8868 10.7227 10.8118C10.9055 10.7696 11.182 10.6923 11.3391 10.6407C11.4937 10.5892 11.7609 10.4813 11.9367 10.397C12.1102 10.3149 12.3773 10.1673 12.5344 10.0712C12.6891 9.97275 12.9328 9.79463 13.0781 9.67275C13.2211 9.54853 13.4555 9.3165 13.5984 9.15244C13.7391 8.98838 13.9125 8.76572 13.9852 8.66025C14.0555 8.55478 14.1961 8.30869 14.2945 8.1165C14.3953 7.92197 14.5266 7.61963 14.5852 7.44385C14.6437 7.26572 14.7258 6.94931 14.7703 6.74072C14.843 6.3915 14.85 6.23681 14.8617 4.97822L14.8758 3.59775H10.7672C8.50547 3.59775 6.64453 3.60713 6.63281 3.62119Z" fill="#3DDC84"/>
</svg>
