<svg width="26" height="26" viewBox="0 0 26 26" fill="none" xmlns="http://www.w3.org/2000/svg">
<path d="M12.7595 12.7595C11.005 12.7595 9.50314 12.1348 8.25378 10.8854C7.00441 9.63605 6.37973 8.13416 6.37973 6.37973C6.37973 4.62531 7.00441 3.12341 8.25378 1.87405C9.50314 0.624682 11.005 0 12.7595 0C14.5139 0 16.0158 0.624682 17.2651 1.87405C18.5145 3.12341 19.1392 4.62531 19.1392 6.37973C19.1392 8.13416 18.5145 9.63605 17.2651 10.8854C16.0158 12.1348 14.5139 12.7595 12.7595 12.7595ZM0 25.5189V21.0531C0 20.1493 0.232594 19.3186 0.697783 18.561C1.16297 17.8034 1.78101 17.2253 2.55189 16.8265C4.19999 16.0025 5.87467 15.3845 7.57593 14.9724C9.27719 14.5604 11.005 14.3544 12.7595 14.3544C14.5139 14.3544 16.2417 14.5604 17.943 14.9724C19.6443 15.3845 21.3189 16.0025 22.967 16.8265C23.7379 17.2253 24.356 17.8034 24.8211 18.561C25.2863 19.3186 25.5189 20.1493 25.5189 21.0531V25.5189H0ZM3.18987 22.3291H22.3291V21.0531C22.3291 20.7607 22.256 20.4949 22.1098 20.2556C21.9636 20.0164 21.7708 19.8303 21.5316 19.6974C20.0962 18.9797 18.6474 18.4414 17.1854 18.0826C15.7234 17.7237 14.2481 17.5443 12.7595 17.5443C11.2709 17.5443 9.79555 17.7237 8.33352 18.0826C6.8715 18.4414 5.42277 18.9797 3.98733 19.6974C3.74809 19.8303 3.55537 20.0164 3.40917 20.2556C3.26297 20.4949 3.18987 20.7607 3.18987 21.0531V22.3291ZM12.7595 9.5696C13.6367 9.5696 14.3876 9.25726 15.0123 8.63257C15.637 8.00789 15.9493 7.25695 15.9493 6.37973C15.9493 5.50252 15.637 4.75157 15.0123 4.12689C14.3876 3.50221 13.6367 3.18987 12.7595 3.18987C11.8823 3.18987 11.1313 3.50221 10.5066 4.12689C9.88194 4.75157 9.5696 5.50252 9.5696 6.37973C9.5696 7.25695 9.88194 8.00789 10.5066 8.63257C11.1313 9.25726 11.8823 9.5696 12.7595 9.5696Z" fill="#33E892"/>
</svg>
