<svg width="16" height="16" viewBox="0 0 16 16" fill="none" xmlns="http://www.w3.org/2000/svg">
<path d="M13.3327 8.66664C13.3327 12 10.9993 13.6666 8.22602 14.6333C8.08079 14.6825 7.92304 14.6802 7.77935 14.6266C4.99935 13.6666 2.66602 12 2.66602 8.66664V3.99997C2.66602 3.82316 2.73625 3.65359 2.86128 3.52857C2.9863 3.40355 3.15587 3.33331 3.33268 3.33331C4.66602 3.33331 6.33268 2.53331 7.49268 1.51997C7.63392 1.39931 7.81358 1.33301 7.99935 1.33301C8.18511 1.33301 8.36478 1.39931 8.50602 1.51997C9.67268 2.53997 11.3327 3.33331 12.666 3.33331C12.8428 3.33331 13.0124 3.40355 13.1374 3.52857C13.2624 3.65359 13.3327 3.82316 13.3327 3.99997V8.66664Z" stroke="#3DDC84" stroke-width="1.33333" stroke-linecap="round" stroke-linejoin="round"/>
</svg>
